{"title":"Escape Plan 2013 R6 HDRip H264 - P2PDL","uid":9266421,"size":448211483,"categoryP":"video","categoryS":"movies","magnet":"?xt=urn:btih:3f6219e89a3dfaafb7ac0329a33e80c796c24887&amp;dn=Escape+Plan+2013+R6+HDRip+H264+-+P2PDL&amp;tr=udp%3A%2F%2Ftracker.openbittorrent.com%3A80&amp;tr=udp%3A%2F%2Fopen.demonii.com%3A1337&amp;tr=udp%3A%2F%2Ftracker.coppersurfer.tk%3A6969&amp;tr=udp%3A%2F%2Fexodus.desync.com%3A6969","seeders":3,"leechers":0,"uploader":"TeX","files":-1,"time":1385707314,"description":" &lt;a href=&quot;http://imageshack.us/a/img43/1034/7mxv.jpg&quot; rel=&quot;nofollow&quot; target=&quot;_NEW&quot;&gt;http://imageshack.us/a/img43/1034/7mxv.jpg&lt;/a&gt;\n &lt;a href=&quot;\nhttp://www.imdb.com/title/tt1211956/&quot; rel=&quot;nofollow&quot; target=&quot;_NEW&quot;&gt;\nhttp://www.imdb.com/title/tt1211956/&lt;/a&gt;\n\nPLOT:\n\nWhen a structural-security authority finds himself set up and incarcerated in the world's most secret and secure prison, he has to use his skills to escape with help from the inside. \n\nGeneral\nComplete name                            : Escape Plan 2013 R6 HDRip H264 - P2PDL/Escape Plan 2013 R6 HDRip H264 - P2PDL.mp4\nFormat                                   : RealMedia\nFile size                                : 427 MiB\nDuration                                 : 1h 46mn\nOverall bit rate                         : 548 Kbps\nMovie name                               : jctk1-rm\n\nVideo\nID                                       : 1\nFormat                                   : RealVideo 4\nCodec ID                                 : RV40\nCodec ID/Info                            : Based on AVC (H.264), Real Player 9\nDuration                                 : 1h 46mn\nBit rate                                 : 452 Kbps\nWidth                                    : 720 pixels\nHeight                                   : 408 pixels\nDisplay aspect ratio                     : 16:9\nFrame rate                               : 23.976 fps\nBits/(Pixel*Frame)                       : 0.064\nStream size                              : 346 MiB (81%)\n\nAudio\nID                                       : 0\nFormat                                   : AAC\nFormat/Info                              : Advanced Audio Codec\nFormat profile                           : LC\nCodec ID                                 : raac\nCodec ID/Info                            : Real Player 9\nDuration                                 : 1h 46mn\nBit rate                                 : 96.0 Kbps\nChannel(s)                               : 2 channels\nSampling rate                            : 44.1 KHz\nBit depth                                : 16 bits\nCompression mode                         : Lossy\nStream size                              : 73.4 MiB (17%)\n &lt;a href=&quot;\nhttp://i.imgur.com/XfPkbrp.png&quot; rel=&quot;nofollow&quot; target=&quot;_NEW&quot;&gt;\nhttp://i.imgur.com/XfPkbrp.png&lt;/a&gt; &lt;a href=&quot;\nhttp://i.imgur.com/PCWPpXF.png&quot; rel=&quot;nofollow&quot; target=&quot;_NEW&quot;&gt;\nhttp://i.imgur.com/PCWPpXF.png&lt;/a&gt; &lt;a href=&quot;\nhttp://i.imgur.com/CcE8uHT.png&quot; rel=&quot;nofollow&quot; target=&quot;_NEW&quot;&gt;\nhttp://i.imgur.com/CcE8uHT.png&lt;/a&gt; &lt;a href=&quot;\nhttp://i.imgur.com/Pd6DahS.png&quot; rel=&quot;nofollow&quot; target=&quot;_NEW&quot;&gt;\nhttp://i.imgur.com/Pd6DahS.png&lt;/a&gt; &lt;a href=&quot;\nhttp://i.imgur.com/TX5pFmS.png&quot; rel=&quot;nofollow&quot; target=&quot;_NEW&quot;&gt;\nhttp://i.imgur.com/TX5pFmS.png&lt;/a&gt;","torrent":{"xt":"urn:btih:3f6219e89a3dfaafb7ac0329a33e80c796c24887","amp;dn":"Escape+Plan+2013+R6+HDRip+H264+-+P2PDL","amp;tr":["udp%3A%2F%2Ftracker.openbittorrent.com%3A80","udp%3A%2F%2Fopen.demonii.com%3A1337","udp%3A%2F%2Ftracker.coppersurfer.tk%3A6969","udp%3A%2F%2Fexodus.desync.com%3A6969"],"infoHash":"3f6219e89a3dfaafb7ac0329a33e80c796c24887","infoHashBuffer":{"type":"Buffer","data":[63,98,25,232,154,61,250,175,183,172,3,41,163,62,128,199,150,194,72,135]},"announce":[],"urlList":[]}}